<svg width="256" height="68" viewBox="0 0 256 68" fill="none" xmlns="http://www.w3.org/2000/svg">
<g clip-path="url(#clip0_345_253)">
<path d="M88.4987 51.3538L74.6707 37.5732L72.3748 39.8704V44.8631H66.4895V18.7051H72.3748V31.5443L85.2303 18.7051L89.3927 22.8674L78.8181 33.4108L92.6624 47.1914L88.4987 51.3538Z" fill="white"/>
<path d="M111.291 31.7842C111.291 29.8066 110.584 28.1162 109.17 26.7129C107.766 25.2989 106.075 24.5918 104.098 24.5918C102.099 24.5918 100.398 25.2948 98.9947 26.6981C97.6023 28.0905 96.9061 29.7876 96.9061 31.7869C96.9061 33.7969 97.6023 35.4968 98.9947 36.8906C100.387 38.283 102.09 38.9806 104.098 38.9806C106.098 38.9806 107.794 38.2844 109.187 36.8906C110.589 35.4833 111.291 33.782 111.291 31.7842ZM117.176 31.7842C117.176 35.4101 115.9 38.4997 113.348 41.0516C110.776 43.5926 107.692 44.8645 104.098 44.8645C100.462 44.8645 97.3734 43.5926 94.831 41.0516C92.2899 38.5106 91.0181 35.421 91.0181 31.7842C91.0181 28.1907 92.2899 25.1065 94.831 22.5343C97.3829 19.9825 100.471 18.7065 104.098 18.7065C107.67 18.7065 110.745 19.9933 113.317 22.5668C115.889 25.1377 117.176 28.2097 117.176 31.7842Z" fill="white"/>
<path d="M135.806 44.8618L124.688 29.4544V44.8618H118.803V18.7051H124.688L135.806 34.0962V18.7051H141.708V44.8618H135.806Z" fill="white"/>
<path d="M150.846 24.5903V28.834H161.31V34.7192H150.846V44.863H144.961V18.7051H164.58V24.5903H150.846Z" fill="white"/>
<path d="M183.559 44.8618V34.718H172.444V44.8618H166.558V18.7051H172.444V28.834H183.559V18.7051H189.46V44.8618H183.559Z" fill="white"/>
<path d="M214.788 33.4095C214.788 36.5993 213.678 39.3056 211.455 41.5284C209.232 43.7511 206.531 44.8618 203.352 44.8618C200.162 44.8618 197.456 43.7511 195.233 41.5284C193.011 39.3056 191.9 36.5993 191.9 33.4095V18.7051H197.785V33.4095C197.785 34.9509 198.327 36.2648 199.412 37.3497C200.497 38.4347 201.811 38.9765 203.352 38.9765C204.894 38.9765 206.204 38.4347 207.276 37.3497C208.361 36.2648 208.903 34.9509 208.903 33.4095V18.7051H214.788V33.4095Z" fill="white"/>
<path d="M234.214 36.8554C234.214 36.2702 234.001 35.7704 233.576 35.3559C233.162 34.9306 232.666 34.718 232.093 34.718H223.13V38.9765H232.093C232.678 38.9765 233.178 38.7693 233.592 38.3548C234.008 37.9389 234.214 37.4391 234.214 36.8554ZM233.56 26.7102C233.56 26.1575 233.358 25.6631 232.953 25.227C232.56 24.8017 232.071 24.589 231.485 24.589H223.129V28.8327H231.437C232.022 28.8327 232.522 28.6254 232.937 28.2109C233.353 27.7965 233.56 27.2967 233.56 26.7102ZM240.148 37.5732C240.148 39.6253 239.314 41.3685 237.645 42.8043C236.049 44.1764 234.211 44.8618 232.125 44.8618H217.245V18.7051H231.439C233.491 18.7051 235.325 19.3742 236.942 20.7152C238.655 22.1184 239.51 23.8251 239.51 25.8352C239.51 28.1527 238.552 30.0029 236.639 31.3859C238.979 32.7986 240.148 34.8615 240.148 37.5732Z" fill="white"/>
<path d="M19.4059 44.6938C13.8416 39.1296 13.8416 30.1086 19.4059 24.543L40.0051 3.94653L42.9159 6.85735C41.4327 8.34052 41.4327 10.7475 42.9159 12.2306C44.3991 13.7138 46.806 13.7138 48.2892 12.2306L51.2 15.1414L32.8899 33.4475L22.5063 25.4045L31.7183 34.6164L20.5247 45.8099L19.4059 44.6938Z" fill="white"/>
<path d="M31.7196 57.009L19.4072 44.6967C13.8429 39.1324 13.8429 30.1114 19.4072 24.5458L20.526 23.427L42.9335 45.8344C42.8861 45.8561 42.8414 45.8873 42.8021 45.9265L42.2495 46.4819C42.0639 46.6674 42.0639 46.9681 42.2495 47.1524C42.4351 47.3379 42.7358 47.3379 42.92 47.1524L43.4753 46.597C43.5146 46.5577 43.5458 46.5144 43.5674 46.4656L51.1987 54.0969L48.2879 57.0077C46.8047 55.5245 44.3977 55.5245 42.9146 57.0077C41.4314 58.4908 41.4314 60.8978 42.9146 62.381L40.0037 65.2904L32.3915 57.6781L32.9441 57.1255C33.1297 56.9399 33.1297 56.6392 32.9441 56.455C32.7585 56.2695 32.4578 56.2695 32.2736 56.455L31.7196 57.009ZM33.3816 55.3457C33.196 55.5313 33.196 55.832 33.3816 56.0162C33.5672 56.2017 33.8679 56.2017 34.0521 56.0162L35.1601 54.9082C35.3456 54.7226 35.3456 54.4219 35.1601 54.2377C34.9745 54.0522 34.6738 54.0522 34.4896 54.2377L33.3816 55.3457ZM35.5976 53.1297C35.412 53.3153 35.412 53.616 35.5976 53.8002C35.7831 53.9858 36.0838 53.9858 36.268 53.8002L37.376 52.6922C37.5616 52.5067 37.5616 52.206 37.376 52.0218C37.1904 51.8362 36.8897 51.8362 36.7055 52.0218L35.5976 53.1297ZM37.8135 50.9138C37.628 51.0994 37.628 51.4001 37.8135 51.5843C37.9991 51.7698 38.2998 51.7698 38.484 51.5843L39.592 50.4763C39.7775 50.2907 39.7775 49.99 39.592 49.8058C39.4064 49.6202 39.1057 49.6202 38.9215 49.8058L37.8135 50.9138ZM40.0308 48.6965C39.8453 48.882 39.8453 49.1827 40.0308 49.367C40.2164 49.5525 40.5171 49.5525 40.7013 49.367L41.8093 48.259C41.9949 48.0734 41.9949 47.7727 41.8093 47.5885C41.6237 47.4029 41.323 47.4029 41.1388 47.5885L40.0308 48.6965Z" fill="white"/>
</g>
<defs>
<clipPath id="clip0_345_253">
<rect width="256" height="67.7248" fill="white" transform="translate(0 0.274414)"/>
</clipPath>
</defs>
</svg>
