<svg width="49" height="49" viewBox="0 0 49 49" fill="none" xmlns="http://www.w3.org/2000/svg">
<path d="M18.1581 23.5579H29.7516C29.7516 23.5579 36.2663 23.6623 36.2663 17.2629V6.67924C36.2663 6.67924 37.2547 0.274414 24.4558 0.274414C12.2033 0.274414 12.9668 5.58632 12.9668 5.58632L12.9828 11.0911H24.6701V12.7439H8.34062C8.34062 12.7439 0.5 11.8545 0.5 24.2141C0.5 36.5738 7.34413 36.1344 7.34413 36.1344H11.4265V30.3993C11.4265 30.3993 11.2042 23.5579 18.1581 23.5579ZM18.0081 8.182C17.4504 8.182 16.9156 7.96045 16.5212 7.5661C16.1269 7.17175 15.9053 6.6369 15.9053 6.0792C15.9053 5.52151 16.1269 4.98665 16.5212 4.5923C16.9156 4.19795 17.4504 3.97641 18.0081 3.97641C18.5658 3.97641 19.1007 4.19795 19.495 4.5923C19.8894 4.98665 20.1109 5.52151 20.1109 6.0792C20.1109 6.6369 19.8894 7.17175 19.495 7.5661C19.1007 7.96045 18.5658 8.182 18.0081 8.182Z" fill="white"/>
<path d="M41.9103 12.4143H37.8279V18.1494C37.8279 18.1494 38.0503 24.9909 31.0963 24.9909H19.5028C19.5028 24.9909 12.9882 24.8837 12.9882 31.2858V41.8695C12.9882 41.8695 11.9997 48.2743 24.7986 48.2743C37.0484 48.2743 36.285 42.9624 36.285 42.9624L36.2689 37.4603H24.5817V35.8075H40.9138C40.9138 35.8075 48.7544 36.6969 48.7544 24.3372C48.7544 11.9776 41.9103 12.4143 41.9103 12.4143ZM31.2463 40.3694C31.804 40.3694 32.3389 40.5909 32.7332 40.9853C33.1276 41.3796 33.3491 41.9145 33.3491 42.4722C33.3491 43.0299 33.1276 43.5647 32.7332 43.9591C32.3389 44.3534 31.804 44.575 31.2463 44.575C30.6886 44.575 30.1538 44.3534 29.7594 43.9591C29.3651 43.5647 29.1435 43.0299 29.1435 42.4722C29.1435 41.9145 29.3651 41.3796 29.7594 40.9853C30.1538 40.5909 30.6886 40.3694 31.2463 40.3694Z" fill="white"/>
</svg>
