<svg width="39" height="39" viewBox="0 0 39 39" fill="none" xmlns="http://www.w3.org/2000/svg">
<path d="M33.6953 5.02441H7.86877C6.60277 5.02441 5.58997 6.03722 5.58997 7.17662V33.1297C5.58997 34.2691 6.60277 35.2819 7.86877 35.2819H33.6953C34.9613 35.2819 35.9741 34.2691 35.9741 33.1297V7.17662C35.9741 6.03722 34.9613 5.02441 33.6953 5.02441ZM14.5786 30.8509H10.1476V16.4185H14.5786V30.8509ZM12.4264 14.3928C11.0338 14.3928 9.76778 13.2534 9.76778 11.7342C9.76778 10.215 10.9072 9.07563 12.4264 9.07563C13.819 9.07563 15.085 10.215 15.085 11.7342C15.085 13.2534 13.819 14.3928 12.4264 14.3928ZM31.5431 30.7243H27.112V23.6347C27.112 21.9889 27.112 19.7101 24.7066 19.7101C22.3012 19.7101 22.048 21.6091 22.048 23.3815V30.5977H17.617V16.4185H21.7948V18.3175H21.9214C22.5544 17.1781 24.0736 15.912 26.2258 15.912C30.7835 15.912 31.6697 18.9505 31.6697 22.8751V30.7243H31.5431Z" fill="white"/>
</svg>
