<svg width="36" height="31" viewBox="0 0 36 31" fill="none" xmlns="http://www.w3.org/2000/svg">
<path d="M35.84 3.9667C34.5404 4.56102 33.1443 4.96259 31.6766 5.14411C33.191 4.20891 34.324 2.73703 34.8641 1.0031C33.4413 1.8753 31.8841 2.48923 30.2602 2.8182C29.1682 1.61488 27.7218 0.817297 26.1456 0.549285C24.5693 0.281272 22.9515 0.557826 21.5431 1.33601C20.1348 2.11419 19.0148 3.35047 18.357 4.85289C17.6992 6.35532 17.5405 8.03984 17.9054 9.64492C15.0224 9.49553 12.2021 8.72218 9.62749 7.37508C7.05286 6.02798 4.78146 4.13722 2.96069 1.82552C2.33813 2.93386 1.98015 4.21888 1.98015 5.58744C1.97946 6.81945 2.27343 8.0326 2.83599 9.11923C3.39855 10.2059 4.2123 11.1324 5.20505 11.8166C4.05373 11.7788 2.92781 11.4577 1.92101 10.8801V10.9765C1.92089 12.7045 2.50005 14.3792 3.5602 15.7167C4.62035 17.0541 6.09621 17.9718 7.73734 18.314C6.6693 18.6124 5.54954 18.6563 4.46264 18.4425C4.92567 19.9293 5.82761 21.2295 7.04219 22.161C8.25677 23.0925 9.7232 23.6086 11.2362 23.6373C8.66782 25.7181 5.49592 26.8468 2.23074 26.8418C1.65234 26.842 1.07444 26.8071 0.5 26.7374C3.81435 28.9367 7.6725 30.1039 11.6128 30.0993C24.9513 30.0993 32.2431 18.6979 32.2431 8.80965C32.2431 8.48839 32.2353 8.16392 32.2213 7.84266C33.6397 6.78408 34.864 5.47323 35.8369 3.97152L35.84 3.9667Z" fill="white"/>
</svg>
