<svg width="50" height="49" viewBox="0 0 50 49" fill="none" xmlns="http://www.w3.org/2000/svg">
<path d="M38.6359 0.274414H10.5949C7.78494 0.274414 5.09009 1.39066 3.10317 3.37758C1.11624 5.3645 0 8.05935 0 10.8693L0 37.6795C0 40.4895 1.11624 43.1843 3.10317 45.1712C5.09009 47.1582 7.78494 48.2744 10.5949 48.2744H38.6359C41.4458 48.2744 44.1407 47.1582 46.1276 45.1712C48.1145 43.1843 49.2308 40.4895 49.2308 37.6795V10.8693C49.2308 8.05935 48.1145 5.3645 46.1276 3.37758C44.1407 1.39066 41.4458 0.274414 38.6359 0.274414ZM26.1108 34.1021H21.4195C21.0913 34.1021 20.8574 34.0898 20.7262 33.8703C20.2851 33.0108 19.8441 32.1575 19.4051 31.3103C18.9512 30.4386 18.4835 29.5743 18.0021 28.7175C17.5019 27.8307 17.0116 26.9383 16.5313 26.0406H16.4985C16.0539 26.9275 15.5971 27.8083 15.1282 28.6826C14.6564 29.5626 14.1867 30.4385 13.7251 31.3083C13.264 32.1787 12.7915 33.043 12.3077 33.9011C12.2174 34.1001 12.0636 34.1206 11.8421 34.1206H7.31897C7.23077 34.1206 7.18154 34.1554 7.17128 34.0672C7.15941 33.9866 7.17688 33.9043 7.22051 33.8354L13.5938 23.3636L7.38462 12.8652C7.31692 12.777 7.30667 12.7052 7.3518 12.6457C7.37607 12.6172 7.40678 12.5949 7.44138 12.5807C7.47598 12.5664 7.51347 12.5606 7.55077 12.5636H12.2072C12.3087 12.5594 12.4099 12.5762 12.5046 12.6129C12.5832 12.658 12.6506 12.7205 12.7015 12.7954C13.0974 13.6775 13.5385 14.5575 14.0226 15.4375C14.5067 16.3175 14.9969 17.1872 15.4913 18.0467C15.9856 18.9062 16.4431 19.776 16.8615 20.656H16.8944C17.3313 19.7534 17.7764 18.8734 18.2318 18.0139C18.6872 17.1544 19.1487 16.2908 19.6185 15.4211C20.0923 14.5493 20.5477 13.6836 20.9887 12.8283C21.0132 12.7458 21.0584 12.6709 21.12 12.6108C21.2019 12.57 21.2935 12.553 21.3846 12.5616H25.7108C25.7594 12.5498 25.8108 12.5575 25.8538 12.5832C25.8968 12.609 25.9279 12.6505 25.9405 12.699C25.9491 12.7339 25.9478 12.7705 25.9365 12.8046C25.9253 12.8387 25.9046 12.869 25.8769 12.8918L25.879 12.9001L19.7354 23.0395L26.3077 33.8067C26.3508 33.8826 26.361 33.9708 26.3405 34.0549C26.32 34.1288 26.2441 34.0795 26.1108 34.1021ZM41.8667 33.2406C40.793 33.6878 39.675 34.0199 38.5313 34.2313C37.4846 34.4257 36.4225 34.5252 35.3579 34.5288C33.8383 34.5511 32.3327 34.2358 30.9497 33.6057C29.6613 33.0091 28.5841 32.0356 27.8605 30.8139C27.0653 29.3885 26.6765 27.7722 26.7364 26.1411C26.7242 24.6253 27.1119 23.133 27.8605 21.8149C28.6317 20.4721 29.7656 19.3738 31.1323 18.6457C32.8593 17.7432 34.8027 17.337 36.7467 17.4724C36.9231 17.4826 37.1323 17.499 37.3744 17.5216V11.0149C37.3744 10.8611 37.44 10.7831 37.5733 10.7831H41.7333C41.7796 10.7767 41.8265 10.7888 41.8638 10.8169C41.901 10.845 41.9257 10.8867 41.9323 10.9329C41.9344 10.9492 41.9344 10.9658 41.9323 10.9821V30.5042C41.9323 30.8795 41.9487 31.2857 41.9815 31.7267C42.0144 32.1657 42.0431 32.5616 42.0636 32.9144C42.0679 32.9824 42.0513 33.05 42.0161 33.1083C41.9809 33.1666 41.9288 33.2127 41.8667 33.2406ZM36.8267 21.3185C37.0113 21.337 37.1938 21.3698 37.3723 21.417V30.4324C37.1358 30.5027 36.8923 30.5467 36.6462 30.5636C36.3602 30.5867 36.0735 30.5976 35.7867 30.5965C35.2087 30.5991 34.634 30.5098 34.0841 30.3318C33.5642 30.1682 33.0895 29.8859 32.6974 29.5072C32.2885 29.0951 31.9729 28.5998 31.7723 28.0549C31.5265 27.3776 31.4089 26.6604 31.4256 25.9401C31.3824 25.0219 31.6184 24.1122 32.1026 23.3308C32.5395 22.6826 33.1364 22.1595 33.8359 21.8108C34.5538 21.4559 35.3456 21.2734 36.1477 21.2816C36.3754 21.2857 36.601 21.296 36.8267 21.3185Z" fill="white"/>
</svg>
