<svg width="44" height="49" viewBox="0 0 44 49" fill="none" xmlns="http://www.w3.org/2000/svg">
<path d="M42.604 12.2721C42.2935 11.7067 41.8377 11.2344 41.2837 10.9039L23.6644 0.725962C23.0934 0.429292 22.4595 0.274414 21.816 0.274414C21.1726 0.274414 20.5386 0.429292 19.9677 0.725962L2.34835 10.9039C1.80851 11.2506 1.35919 11.7212 1.03772 12.2764C0.716245 12.8317 0.531902 13.4557 0.5 14.0965V34.4523C0.517404 35.0956 0.699211 35.7236 1.0281 36.2767C1.33859 36.8421 1.79435 37.3145 2.34835 37.6449L19.9677 47.8229C20.5386 48.1195 21.1726 48.2744 21.816 48.2744C22.4595 48.2744 23.0934 48.1195 23.6644 47.8229L41.2837 37.6449C41.8377 37.3145 42.2935 36.8421 42.604 36.2767C42.9328 35.7236 43.1146 35.0956 43.132 34.4523V14.0965C43.1146 13.4533 42.9328 12.8252 42.604 12.2721ZM21.816 38.4851C19.329 38.474 16.8884 37.8103 14.7382 36.5605C12.5879 35.3106 10.8034 33.5183 9.56285 31.3627C8.32231 29.2071 7.66923 26.7637 7.66888 24.2766C7.66852 21.7895 8.3209 19.3459 9.56083 17.1899C10.8007 15.0339 12.5848 13.2411 14.7347 11.9907C16.8845 10.7402 19.3249 10.0759 21.812 10.064C24.299 10.0522 26.7456 10.6933 28.9073 11.9233C31.069 13.1532 32.87 14.929 34.1304 17.0731L31.4178 18.7774L30.5537 19.2575L28.1532 20.7217C27.3868 19.3005 26.165 18.1781 24.684 17.5348C23.203 16.8914 21.5488 16.7645 19.9869 17.1743C18.4251 17.5842 17.0464 18.507 16.0721 19.7947C15.0978 21.0823 14.5845 22.66 14.6147 24.2744C14.6079 25.5236 14.9397 26.7514 15.5748 27.8271C16.2167 28.8853 17.1205 29.7602 18.199 30.3674C19.2775 30.9746 20.4943 31.2936 21.732 31.2936C22.9697 31.2936 24.1865 30.9746 25.265 30.3674C26.3435 29.7602 27.2473 28.8853 27.8892 27.8271L34.1304 31.4758C32.8667 33.616 31.0655 35.3888 28.9055 36.6183C26.7454 37.8479 24.3015 38.4914 21.816 38.4851ZM36.0267 25.0666H34.4424V26.6749H32.8821V25.0906H31.4178V23.5063H33.0021V21.874H34.5624V23.4583H36.1467L36.0267 25.0666ZM41.9558 25.0666H40.3715V26.6749H38.7872V25.0906H37.2269V23.5063H38.7872V21.874H40.3715V23.4583H41.9558V25.0666Z" fill="white"/>
</svg>
