<svg width="34" height="49" viewBox="0 0 34 49" fill="none" xmlns="http://www.w3.org/2000/svg">
<path d="M9.3913 0.274414C4.22935 0.274414 0 4.50376 0 9.66572C0 12.6765 1.53067 15.248 3.75408 16.9701C1.53067 18.6922 0 21.2637 0 24.2744C0 27.2852 1.53067 29.8567 3.75408 31.5788C1.53067 33.3009 0 35.8724 0 38.8831C0 44.0451 4.22935 48.2744 9.3913 48.2744C14.5533 48.2744 18.7826 44.0451 18.7826 38.8831V31.5788V19.057H24C29.162 19.057 33.3913 14.8277 33.3913 9.66572C33.3913 4.50376 29.162 0.274414 24 0.274414H16.6957H9.3913ZM9.3913 4.44833H14.6087V14.8831H9.3913C6.48509 14.8831 4.17391 12.5719 4.17391 9.66572C4.17391 6.7595 6.48509 4.44833 9.3913 4.44833ZM18.7826 4.44833H24C26.9062 4.44833 29.2174 6.7595 29.2174 9.66572C29.2174 12.5719 26.9062 14.8831 24 14.8831H18.7826V4.44833ZM9.3913 19.057H14.6087V29.4918H9.3913C6.48509 29.4918 4.17391 27.1806 4.17391 24.2744C4.17391 21.3682 6.48509 19.057 9.3913 19.057ZM25.0435 19.057C23.383 19.057 21.7905 19.7166 20.6164 20.8908C19.4422 22.0649 18.7826 23.6574 18.7826 25.3179C18.7826 26.9784 19.4422 28.5709 20.6164 29.745C21.7905 30.9191 23.383 31.5788 25.0435 31.5788C26.704 31.5788 28.2964 30.9191 29.4706 29.745C30.6447 28.5709 31.3043 26.9784 31.3043 25.3179C31.3043 23.6574 30.6447 22.0649 29.4706 20.8908C28.2964 19.7166 26.704 19.057 25.0435 19.057ZM9.3913 33.6657H14.6087V38.8831C14.6087 41.7893 12.2975 44.1005 9.3913 44.1005C6.48509 44.1005 4.17391 41.7893 4.17391 38.8831C4.17391 35.9769 6.48509 33.6657 9.3913 33.6657Z" fill="white"/>
</svg>
