<svg width="44" height="45" viewBox="0 0 44 45" fill="none" xmlns="http://www.w3.org/2000/svg">
<path d="M42.24 0.274414H1.76C0.7865 0.274414 0 1.06091 0 2.03441V42.5144C0 43.4879 0.7865 44.2744 1.76 44.2744H42.24C43.2135 44.2744 44 43.4879 44 42.5144V2.03441C44 1.06091 43.2135 0.274414 42.24 0.274414ZM14.08 35.0344C14.08 35.2764 13.882 35.4744 13.64 35.4744H9.24C8.998 35.4744 8.8 35.2764 8.8 35.0344V9.51441C8.8 9.27241 8.998 9.07441 9.24 9.07441H13.64C13.882 9.07441 14.08 9.27241 14.08 9.51441V35.0344ZM24.64 19.6344C24.64 19.8764 24.442 20.0744 24.2 20.0744H19.8C19.558 20.0744 19.36 19.8764 19.36 19.6344V9.51441C19.36 9.27241 19.558 9.07441 19.8 9.07441H24.2C24.442 9.07441 24.64 9.27241 24.64 9.51441V19.6344ZM35.2 23.5944C35.2 23.8364 35.002 24.0344 34.76 24.0344H30.36C30.118 24.0344 29.92 23.8364 29.92 23.5944V9.51441C29.92 9.27241 30.118 9.07441 30.36 9.07441H34.76C35.002 9.07441 35.2 9.27241 35.2 9.51441V23.5944Z" fill="white"/>
</svg>
