<svg width="50" height="49" viewBox="0 0 50 49" fill="none" xmlns="http://www.w3.org/2000/svg">
<path d="M40.9864 10.0582C42.3494 9.55447 42.553 8.80142 42.553 8.39725C42.553 7.99307 42.3494 7.24003 40.9864 6.73628L24.6652 0.707541C23.1008 0.130038 20.4361 0.130038 18.8717 0.707541L2.55045 6.73628C1.18672 7.24003 0.983155 7.99307 0.983155 8.39725C0.983155 8.80142 1.18672 9.55447 2.55045 10.0582L18.871 16.087C19.6535 16.3761 20.6817 16.5346 21.7681 16.5346C22.8545 16.5346 23.8826 16.3761 24.6652 16.087L40.9864 10.0582ZM19.3777 14.7181L3.05641 8.68932C2.74369 8.57426 2.58069 8.4651 2.49956 8.39725C2.58069 8.32866 2.74369 8.22024 3.05641 8.10444L19.3769 2.0757C20.6079 1.62137 22.9275 1.62137 24.1592 2.0757L40.4805 8.10444C40.7925 8.2195 40.9562 8.32866 41.0373 8.39725C40.9562 8.4651 40.7925 8.57426 40.4805 8.68932L24.1592 14.7181C22.9297 15.1724 20.6072 15.1724 19.3777 14.7181ZM18.0663 18.1351L3.4156 12.6773C3.05572 12.54 2.6745 12.4671 2.28936 12.4619C0.937427 12.4619 0 13.5564 0 15.1857V33.3707C0 35.2979 1.27154 37.2296 2.9561 37.8631L17.3044 43.3225C17.685 43.4656 18.1895 43.5379 18.5737 43.5379C20.1381 43.5379 21.389 42.3924 21.389 40.8141V22.6298C21.389 20.8176 19.8357 18.8019 18.0663 18.1351ZM19.9139 40.8148C19.9139 41.6888 19.183 42.0797 18.5656 42.0797C18.3569 42.0797 18.0877 42.0384 17.8745 41.9588L3.50779 36.4987C2.39778 36.0812 1.4751 34.6777 1.4751 33.3707V15.1857C1.4751 14.7136 1.57098 13.9208 2.26871 13.9208C2.43982 13.9208 2.63232 13.9621 2.84916 14.0432L17.5478 19.5011C18.7515 19.9547 19.9146 21.4165 19.9146 22.6298V40.8148H19.9139ZM48.165 35.3356L47.3773 35.2618C47.1465 34.2904 46.7283 33.4061 46.2629 32.6228L46.7401 32.0144C47.1922 31.4605 47.2062 30.7598 46.7961 30.349L45.0636 28.7433C44.8844 28.5641 44.9906 28.4808 44.253 28.4675V15.1857C44.253 14.2497 43.9691 13.4303 43.2559 12.9369C42.4932 12.4095 41.5654 12.3144 40.597 12.6787L26.4058 18.1359C24.7161 18.7724 23.6009 20.7048 23.6009 22.6298V40.8148C23.6009 41.8703 23.8399 42.7059 24.5073 43.1669C24.8606 43.4117 25.2154 43.5356 25.6756 43.5356C26.0289 43.5356 26.3748 43.4626 26.7665 43.3151L29.6289 42.1343C29.6754 42.2154 29.7144 42.2951 29.7639 42.374L29.0949 43.2089C28.6561 43.7459 28.6332 44.462 29.0455 44.8743C29.0573 44.8868 29.0728 44.8905 29.0861 44.9016L30.6615 46.4792C31.0693 46.8871 31.7847 46.8635 32.3246 46.4239L33.1595 45.7454C33.9111 46.1938 34.7158 46.5345 35.5617 46.7617L35.6517 47.4115C35.6812 47.7095 35.8 47.9403 36.0043 48.0974C36.3037 48.3283 36.629 48.2759 36.789 48.2479L39.0799 48.253C39.1322 48.2619 39.2126 48.2744 39.307 48.2744C39.4619 48.2744 39.6574 48.2405 39.8432 48.0974C40.0475 47.9403 40.1663 47.7102 40.195 47.4248L40.288 46.6437C41.2512 46.4342 42.064 46.1422 42.7868 45.7468L43.5177 46.3715C44.0746 46.8251 44.7745 46.8583 45.1809 46.4527L46.788 44.8573C47.2018 44.4428 47.1782 43.7451 46.7334 43.2001L46.2083 42.5554C46.7114 41.7479 47.089 40.8685 47.3279 39.9475L48.1547 39.8781C48.3878 39.8545 49.4159 39.7041 49.4159 38.7408V36.4714C49.4159 35.5089 48.3878 35.3577 48.165 35.3356ZM26.2015 41.9573C25.9043 42.0687 25.6262 42.1616 25.3467 41.9676C25.0885 41.7899 25.0775 41.3695 25.0775 40.8156V22.6298C25.0775 21.3243 25.8467 19.9207 26.9626 19.5003L41.2446 14.0432C41.7542 13.8507 42.0891 13.8854 42.4519 14.1369C42.7698 14.3567 42.7779 14.7299 42.7779 15.1857V29.7567C42.7779 29.7707 42.8591 29.7847 42.8333 29.7988C41.8966 29.2087 40.9437 28.792 39.8572 28.57L39.8012 28.0176C39.7577 27.5854 39.5224 26.8596 39.0592 26.8596H36.7898C36.3015 26.8596 36.0552 27.6149 36.0161 28.005L35.901 28.9152C34.9444 29.1269 33.9568 29.4433 33.0651 29.9964L32.0923 29.1512C31.6682 28.8045 31.1829 28.761 30.9137 29.031L29.3073 30.6197C29.0344 30.894 29.0698 31.3985 29.3914 31.7901L30.2034 32.7881C29.6775 33.645 29.2979 34.5834 29.0802 35.5649L27.976 35.6992C27.4922 35.7478 27.2894 36.0731 27.2894 36.4729V38.7423C27.2894 39.1428 27.4922 39.4688 27.9738 39.5167L29.2033 39.6547C29.2734 39.9777 29.3294 40.3103 29.4415 40.6422L26.2015 41.9573ZM47.2032 38.4672L46.5336 38.5638C46.2216 38.6029 46.0239 38.836 45.9619 39.1443C45.7422 40.2373 45.3291 41.2596 44.6801 42.1822C44.5907 42.3138 44.5468 42.4709 44.5549 42.6297C44.563 42.7886 44.6228 42.9404 44.7251 43.0621L45.5275 44.0475L44.3784 45.1907L43.3363 44.2983C43.217 44.1963 43.0681 44.1356 42.9115 44.1251C42.755 44.1146 42.5992 44.1549 42.4674 44.24C41.6753 44.7526 40.732 45.0926 39.4981 45.3124C39.3446 45.338 39.2036 45.4126 39.0961 45.5251C38.9887 45.6376 38.9206 45.7819 38.9021 45.9364L38.8025 46.772H37.0383L36.9395 46.0603C36.9191 45.9119 36.8532 45.7736 36.7508 45.6643C36.6484 45.555 36.5146 45.4803 36.3679 45.4503C35.348 45.2357 34.3796 44.8249 33.5165 44.2407C33.3867 44.1532 33.2321 44.1098 33.0756 44.1168C32.9192 44.1239 32.7692 44.181 32.6477 44.2798L31.4735 45.2261L30.2912 44.0423L31.2264 42.8689C31.3225 42.7474 31.3775 42.5986 31.3838 42.4438C31.39 42.289 31.3471 42.1363 31.2611 42.0074C30.9609 41.5575 30.8245 41.3518 30.6231 40.893C30.5773 40.7921 30.5089 40.7032 30.423 40.6332C30.3371 40.5632 30.2362 40.5141 30.1282 40.4896C29.9807 40.0765 29.873 39.6524 29.7897 39.2446C29.7741 39.1686 29.7348 39.0996 29.6774 39.0475C29.62 38.9953 29.5474 38.9629 29.4703 38.9547L27.9001 38.788C27.7754 38.7755 27.7231 38.7253 27.7223 38.7386L27.7172 36.495C27.7245 36.4824 27.7769 36.4345 27.903 36.422L29.4224 36.259C29.5001 36.2506 29.5731 36.2175 29.6306 36.1645C29.6881 36.1115 29.727 36.0415 29.7417 35.9647C29.9464 34.8924 30.3597 33.8708 30.958 32.9577C31.0003 32.8929 31.021 32.8163 31.0168 32.739C31.0127 32.6616 30.9841 32.5876 30.9351 32.5277L29.9564 31.327C29.8671 31.2171 29.845 31.1079 29.8221 31.1374L31.3828 29.5967C31.4322 29.607 31.5244 29.6409 31.6195 29.7184L32.79 30.7539C32.9147 30.8645 33.0998 30.8763 33.2392 30.7804C34.1102 30.1786 35.0934 29.8851 36.303 29.6299C36.3766 29.6142 36.4435 29.5762 36.4946 29.521C36.5457 29.4658 36.5785 29.3961 36.5884 29.3216L36.7396 28.0921C36.7558 27.9342 36.8237 27.595 36.8716 27.595H38.9766C39.0245 27.595 39.0924 27.9401 39.1123 28.1282L39.2569 28.8975C39.2871 29.0443 39.4036 29.1859 39.5512 29.2117C40.6317 29.4027 41.6436 29.8143 42.567 30.3947C42.6798 30.5105 42.851 30.5695 43.0117 30.5865C43.1725 30.6042 43.4277 30.4183 43.5738 30.3232L44.3585 29.9824L45.5216 31.1507L44.7325 32.0918C44.6295 32.2141 44.5696 32.3668 44.562 32.5265C44.5544 32.6862 44.5995 32.8439 44.6904 32.9754C45.2841 33.8339 45.6979 34.8716 45.9206 36.0584C45.9789 36.3726 46.1286 36.6123 46.4458 36.6484L47.201 36.7465V38.4672H47.2032ZM38.065 30.8173C34.3308 30.8173 31.2935 33.8553 31.2935 37.5895C31.2935 41.3237 34.3315 44.361 38.065 44.361C41.7985 44.361 44.8372 41.3237 44.8372 37.5895C44.8372 33.8553 41.7992 30.8173 38.065 30.8173ZM38.065 43.6315C34.7335 43.6315 32.023 40.921 32.023 37.5895C32.023 34.258 34.7335 31.5475 38.065 31.5475C41.3965 31.5475 44.107 34.258 44.107 37.5895C44.107 40.921 41.3965 43.6315 38.065 43.6315ZM38.065 35.0804C37.3998 35.0811 36.762 35.3458 36.2916 35.8161C35.8212 36.2865 35.5566 36.9243 35.5558 37.5895C35.5566 38.2547 35.8212 38.8925 36.2916 39.3629C36.762 39.8333 37.3998 40.0979 38.065 40.0987C38.7302 40.0979 39.368 39.8333 39.8384 39.3629C40.3088 38.8925 40.5734 38.2547 40.5741 37.5895C40.5734 36.9243 40.3088 36.2865 39.8384 35.8161C39.368 35.3458 38.7302 35.0811 38.065 35.0804ZM38.065 38.6398C37.7866 38.6394 37.5196 38.5286 37.3228 38.3317C37.1259 38.1349 37.0151 37.8679 37.0147 37.5895C37.0147 37.0105 37.486 36.5392 38.065 36.5392C38.644 36.5392 39.1153 37.0105 39.1153 37.5895C39.1153 38.1685 38.644 38.6398 38.065 38.6398Z" fill="white"/>
</svg>
