<svg width="54" height="49" viewBox="0 0 54 49" fill="none" xmlns="http://www.w3.org/2000/svg">
<path d="M14.9 0.274414C11.0809 0.274414 7.41819 1.79155 4.71766 4.49208C2.01714 7.1926 0.5 10.8553 0.5 14.6744C0.5 18.4935 2.01714 22.1562 4.71766 24.8568C7.41819 27.5573 11.0809 29.0744 14.9 29.0744C18.7191 29.0744 22.3818 27.5573 25.0823 24.8568C27.7829 22.1562 29.3 18.4935 29.3 14.6744C29.3 10.8553 27.7829 7.1926 25.0823 4.49208C22.3818 1.79155 18.7191 0.274414 14.9 0.274414ZM49.7 9.87441C48.7452 9.87441 47.8296 10.2537 47.1544 10.9288C46.4793 11.604 46.1 12.5196 46.1 13.4744C46.1 14.4292 46.4793 15.3449 47.1544 16.02C47.8296 16.6951 48.7452 17.0744 49.7 17.0744C50.6548 17.0744 51.5705 16.6951 52.2456 16.02C52.9207 15.3449 53.3 14.4292 53.3 13.4744C53.3 12.5196 52.9207 11.604 52.2456 10.9288C51.5705 10.2537 50.6548 9.87441 49.7 9.87441ZM38.9 14.6744C36.9904 14.6744 35.1591 15.433 33.8088 16.7832C32.4586 18.1335 31.7 19.9649 31.7 21.8744C31.7 23.784 32.4586 25.6153 33.8088 26.9656C35.1591 28.3158 36.9904 29.0744 38.9 29.0744C40.8096 29.0744 42.6409 28.3158 43.9912 26.9656C45.3414 25.6153 46.1 23.784 46.1 21.8744C46.1 19.9649 45.3414 18.1335 43.9912 16.7832C42.6409 15.433 40.8096 14.6744 38.9 14.6744ZM38.9 31.4744C36.6722 31.4744 34.5356 32.3594 32.9603 33.9347C31.385 35.51 30.5 37.6466 30.5 39.8744C30.5 42.1022 31.385 44.2388 32.9603 45.8141C34.5356 47.3894 36.6722 48.2744 38.9 48.2744C41.1278 48.2744 43.2644 47.3894 44.8397 45.8141C46.415 44.2388 47.3 42.1022 47.3 39.8744C47.3 37.6466 46.415 35.51 44.8397 33.9347C43.2644 32.3594 41.1278 31.4744 38.9 31.4744Z" fill="white"/>
</svg>
