<svg width="51" height="49" viewBox="0 0 51 49" fill="none" xmlns="http://www.w3.org/2000/svg">
<path d="M47.3491 48.2744C47.894 48.275 48.4312 48.1457 48.9161 47.8972C49.401 47.6486 49.8197 47.2881 50.1374 46.8454C50.4551 46.4028 50.6628 45.8907 50.743 45.3518C50.8233 44.8129 50.774 44.2626 50.5991 43.7465V43.7507L36.7086 2.60819C36.4797 1.92854 36.0434 1.3378 35.4612 0.919137C34.8789 0.500476 34.18 0.274985 33.4629 0.274414H17.3148C16.5976 0.274985 15.8987 0.500476 15.3165 0.919137C14.7342 1.3378 14.2979 1.92854 14.0691 2.60819L0.180665 43.7486C0.00618025 44.2646 -0.0428506 44.8146 0.037635 45.3533C0.118121 45.8919 0.325805 46.4037 0.643481 46.8461C0.961158 47.2884 1.37968 47.6488 1.86437 47.8972C2.34906 48.1456 2.88597 48.2749 3.4306 48.2744H13.4618C14.1793 48.2743 14.8787 48.049 15.4614 47.6303C16.044 47.2116 16.4806 46.6206 16.7096 45.9406L18.7768 39.8216L29.2439 47.5973C29.8363 48.0374 30.5515 48.2744 31.2878 48.2744H47.3491ZM24.7625 21.7608L32.4303 44.4828C32.4884 44.6545 32.5048 44.8374 32.4782 45.0167C32.4516 45.1959 32.3827 45.3662 32.2773 45.5136C32.1719 45.661 32.0329 45.7811 31.8719 45.8642C31.7109 45.9473 31.5324 45.9909 31.3513 45.9914V45.9893H31.2878C31.0425 45.9896 30.8036 45.911 30.6065 45.765L10.9566 31.1657H21.2248L24.7625 21.7608ZM34.5821 45.9893C34.8276 45.2995 34.8572 44.5209 34.597 43.7507L20.7128 2.60819C20.7079 2.59405 20.703 2.57995 20.698 2.56587H33.465C33.7038 2.56552 33.9368 2.64003 34.1311 2.77894C34.3254 2.91784 34.4713 3.11415 34.5483 3.34027L48.4325 44.4828C48.5292 44.7696 48.5083 45.083 48.3742 45.3544C48.2401 45.6257 48.0039 45.8327 47.7173 45.9301" fill="white"/>
</svg>
