<svg width="51" height="49" viewBox="0 0 51 49" fill="none" xmlns="http://www.w3.org/2000/svg">
<path d="M11.0074 28.2744C9.02955 28.2744 7.09615 28.8609 5.45166 29.9597C3.80717 31.0585 2.52545 32.6203 1.76857 34.4476C1.01169 36.2748 0.813661 38.2855 1.19951 40.2253C1.58536 42.1651 2.53777 43.947 3.9363 45.3455C5.33482 46.744 7.11665 47.6964 9.05646 48.0823C10.9963 48.4681 13.0069 48.2701 14.8342 47.5132C16.6615 46.7563 18.2232 45.4746 19.3221 43.8301C20.4209 42.1856 21.0074 40.2522 21.0074 38.2744C21.0074 36.9612 20.7487 35.6608 20.2462 34.4476C19.7436 33.2343 19.007 32.1319 18.0784 31.2033C17.1498 30.2748 16.0475 29.5382 14.8342 29.0356C13.6209 28.5331 12.3206 28.2744 11.0074 28.2744ZM11.0074 42.2744C10.2162 42.2744 9.44288 42.0398 8.78508 41.6003C8.12729 41.1608 7.6146 40.5361 7.31185 39.8051C7.0091 39.0742 6.92988 38.27 7.08422 37.494C7.23856 36.7181 7.61953 36.0054 8.17894 35.446C8.73835 34.8866 9.45108 34.5056 10.227 34.3513C11.0029 34.1969 11.8072 34.2761 12.5381 34.5789C13.269 34.8816 13.8937 35.3943 14.3332 36.0521C14.7728 36.7099 15.0074 37.4833 15.0074 38.2744C15.0074 39.3353 14.5859 40.3527 13.8358 41.1028C13.0856 41.853 12.0682 42.2744 11.0074 42.2744ZM3.00736 24.2744C2.21204 24.271 1.44952 23.957 0.882365 23.3994C0.602686 23.1207 0.380775 22.7895 0.229359 22.4249C0.077943 22.0602 0 21.6693 0 21.2744C0 20.8796 0.077943 20.4886 0.229359 20.124C0.380775 19.7593 0.602686 19.4281 0.882365 19.1494L3.75736 16.2744L0.882365 13.3994C0.318781 12.8358 0.00216198 12.0714 0.00216198 11.2744C0.00216198 10.4774 0.318781 9.713 0.882365 9.14941C1.44595 8.58583 2.21034 8.26921 3.00736 8.26921C3.80439 8.26921 4.56878 8.58583 5.13236 9.14941L8.00736 12.0244L10.8824 9.14941C11.4459 8.58583 12.2103 8.26921 13.0074 8.26921C13.8044 8.26921 14.5688 8.58583 15.1324 9.14941C15.6959 9.713 16.0126 10.4774 16.0126 11.2744C16.0126 12.0714 15.6959 12.8358 15.1324 13.3994L12.2574 16.2744L15.1324 19.1494C15.412 19.4281 15.634 19.7593 15.7854 20.124C15.9368 20.4886 16.0147 20.8796 16.0147 21.2744C16.0147 21.6693 15.9368 22.0602 15.7854 22.4249C15.634 22.7895 15.412 23.1207 15.1324 23.3994C14.5662 23.9582 13.8028 24.2715 13.0074 24.2715C12.2119 24.2715 11.4485 23.9582 10.8824 23.3994L8.00736 20.5244L5.13236 23.3994C4.56521 23.957 3.80269 24.271 3.00736 24.2744ZM49.1324 43.1494C49.412 43.4281 49.6339 43.7593 49.7854 44.124C49.9368 44.4886 50.0147 44.8796 50.0147 45.2744C50.0147 45.6693 49.9368 46.0602 49.7854 46.4249C49.6339 46.7895 49.412 47.1207 49.1324 47.3994C48.5662 47.9582 47.8028 48.2715 47.0074 48.2715C46.2119 48.2715 45.4485 47.9582 44.8824 47.3994L42.0074 44.5244L39.1324 47.3994C38.5662 47.9582 37.8028 48.2715 37.0074 48.2715C36.2119 48.2715 35.4485 47.9582 34.8824 47.3994C34.6027 47.1207 34.3808 46.7895 34.2294 46.4249C34.0779 46.0602 34 45.6693 34 45.2744C34 44.8796 34.0779 44.4886 34.2294 44.124C34.3808 43.7593 34.6027 43.4281 34.8824 43.1494L37.7574 40.2744L34.8824 37.3994C34.3188 36.8358 34.0022 36.0714 34.0022 35.2744C34.0022 34.4774 34.3188 33.713 34.8824 33.1494C35.4459 32.5858 36.2103 32.2692 37.0074 32.2692C37.8044 32.2692 38.5688 32.5858 39.1324 33.1494L42.0074 36.0244L44.8824 33.1494C45.4459 32.5858 46.2103 32.2692 47.0074 32.2692C47.8044 32.2692 48.5688 32.5858 49.1324 33.1494C49.6959 33.713 50.0126 34.4774 50.0126 35.2744C50.0126 36.0714 49.6959 36.8358 49.1324 37.3994L46.2574 40.2744L49.1324 43.1494ZM38.2824 19.9994C36.9824 25.7244 32.4574 30.8744 27.0074 32.7994C26.6875 32.9182 26.3486 32.9775 26.0074 32.9744C25.3014 32.9722 24.6188 32.721 24.0797 32.2651C23.5407 31.8092 23.1797 31.1778 23.0602 30.482C22.9408 29.7862 23.0705 29.0706 23.4267 28.461C23.7828 27.8514 24.3426 27.387 25.0074 27.1494C28.5324 25.8994 31.5824 22.4244 32.4324 18.6744C33.0324 16.0494 32.5324 13.4494 31.0074 11.0244V13.2744C31.0074 14.0701 30.6913 14.8331 30.1287 15.3957C29.5661 15.9583 28.803 16.2744 28.0074 16.2744C27.2117 16.2744 26.4487 15.9583 25.886 15.3957C25.3234 14.8331 25.0074 14.0701 25.0074 13.2744V3.27441C25.0074 2.47876 25.3234 1.7157 25.886 1.15309C26.4487 0.590484 27.2117 0.274414 28.0074 0.274414H38.0074C38.803 0.274414 39.5661 0.590484 40.1287 1.15309C40.6913 1.7157 41.0074 2.47876 41.0074 3.27441C41.0074 4.07006 40.6913 4.83313 40.1287 5.39573C39.5661 5.95834 38.803 6.27441 38.0074 6.27441H35.0074C38.2074 10.4244 39.3574 15.2244 38.2824 19.9994Z" fill="white"/>
</svg>
