<svg width="49" height="49" viewBox="0 0 49 49" fill="none" xmlns="http://www.w3.org/2000/svg">
<path d="M24.5 0.274414C11.24 0.274414 0.5 11.0144 0.5 24.2744C0.5 36.4544 9.56 46.4944 21.3 48.0744V43.2744C21.3101 42.6014 21.1065 41.9425 20.7183 41.3927C20.3302 40.8428 19.7775 40.4302 19.14 40.2144C15.7394 39.0675 12.7948 36.8631 10.7365 33.9232C8.67823 30.9833 7.61423 27.4622 7.7 23.8744C7.78937 19.452 9.62544 15.2448 12.807 12.1718C15.9887 9.09889 20.2572 7.41009 24.68 7.47441C26.9242 7.49693 29.1411 7.96886 31.1998 8.86235C33.2586 9.75584 35.1175 11.0528 36.6667 12.6766C38.2159 14.3004 39.4241 16.2181 40.2199 18.3166C41.0157 20.415 41.3829 22.6517 41.3 24.8944L41.28 25.0344C41.2656 25.2882 41.2456 25.5416 41.22 25.7944C41.22 25.9344 41.2 26.0744 41.18 26.1944C41.18 26.3544 41.16 26.5144 41.14 26.6544L41.1 26.8544C39.04 40.4144 21.4 48.0144 21.3 48.0744C22.34 48.2144 23.42 48.2744 24.5 48.2744C37.76 48.2744 48.5 37.5344 48.5 24.2744C48.5 11.0144 37.76 0.274414 24.5 0.274414Z" fill="white"/>
</svg>
