<svg width="50" height="49" viewBox="0 0 50 49" fill="none" xmlns="http://www.w3.org/2000/svg">
<path d="M24.6555 0.274416C11.0333 0.268908 0 11.2967 0 24.9079C0 35.6712 6.90199 44.8207 16.5141 48.1808C17.8086 48.5058 17.6103 47.5859 17.6103 46.9579V42.6889C10.1354 43.5648 9.83244 38.6182 9.33118 37.792C8.31764 36.0623 5.9215 35.6217 6.63759 34.7954C8.33967 33.9196 10.0748 35.0158 12.0854 37.9848C13.5396 40.1385 16.3764 39.775 17.8141 39.4169C18.128 38.1225 18.8001 36.9657 19.7255 36.0678C11.9807 34.6797 8.7528 29.9536 8.7528 24.335C8.7528 21.6084 9.65067 19.102 11.4133 17.0805C10.2896 13.7479 11.518 10.8946 11.6833 10.4704C14.8836 10.184 18.2107 12.7619 18.4696 12.9657C20.2873 12.4755 22.364 12.2166 24.6885 12.2166C27.0241 12.2166 29.1062 12.4865 30.9405 12.9822C31.563 12.5085 34.6477 10.2942 37.6222 10.5641C37.7819 10.9882 38.9827 13.7754 37.9251 17.0639C39.7098 19.091 40.6187 21.6194 40.6187 24.3515C40.6187 29.9811 37.3688 34.7128 29.602 36.0789C30.2672 36.7331 30.7954 37.5133 31.1558 38.374C31.5161 39.2346 31.7014 40.1584 31.7007 41.0915V47.2884C31.7447 47.7842 31.7007 48.2744 32.5269 48.2744C42.2823 44.9859 49.3054 35.7704 49.3054 24.9134C49.3054 11.2967 38.2667 0.274416 24.6555 0.274416Z" fill="white"/>
</svg>
