<svg width="36" height="49" viewBox="0 0 36 49" fill="none" xmlns="http://www.w3.org/2000/svg">
<path d="M17.686 48.2743C17.0414 48.2797 16.4209 48.0299 15.9597 47.5796L0.801825 33.2638C0.549923 33.0298 0.348898 32.7464 0.211266 32.4313C0.0736336 32.1162 0.00234104 31.7761 0.00182641 31.4323V17.1165C0.00182641 16.4465 0.26799 15.8039 0.741766 15.3301C1.21554 14.8563 1.85812 14.5902 2.52814 14.5902H11.3281L0.801825 4.6323C0.433355 4.28812 0.176305 3.84155 0.0637497 3.35006C-0.0488053 2.85857 -0.0117157 2.34465 0.170247 1.87441C0.361428 1.40474 0.687358 1.00217 1.10696 0.717442C1.52657 0.432711 2.02107 0.278559 2.52814 0.274414H32.8439C33.5139 0.274414 34.1565 0.540578 34.6302 1.01435C35.104 1.48813 35.3702 2.13071 35.3702 2.80073V17.1165C35.3702 17.7865 35.104 18.4291 34.6302 18.9029C34.1565 19.3766 33.5139 19.6428 32.8439 19.6428H24.0439L34.5702 29.6007C34.9387 29.9449 35.1957 30.3914 35.3083 30.8829C35.4208 31.3744 35.3837 31.8883 35.2018 32.3586C35.0106 32.8282 34.6847 33.2308 34.2651 33.5155C33.8454 33.8003 33.3509 33.9544 32.8439 33.9586H20.2123V45.748C20.2097 46.2391 20.0653 46.7189 19.7964 47.1297C19.5275 47.5406 19.1455 47.865 18.6965 48.0638C18.3781 48.204 18.0339 48.2757 17.686 48.2743ZM5.05445 30.3375L15.1597 39.8954V31.4323C15.1597 30.7622 15.4259 30.1197 15.8996 29.6459C16.3734 29.1721 17.016 28.9059 17.686 28.9059H26.486L16.6755 19.6428H5.05445V30.3375ZM18.6965 14.5902H30.3176V5.32704H8.88602L18.6965 14.5902Z" fill="white"/>
</svg>
