<svg width="48" height="49" viewBox="0 0 48 49" fill="none" xmlns="http://www.w3.org/2000/svg">
<path d="M46.7405 21.2377L27.0367 1.53392C26.2011 0.694251 25.1005 0.274414 24 0.274414C22.8995 0.274414 21.7989 0.694251 20.9633 1.53392L17.0666 5.43066L21.8886 10.2527C23.4905 9.3111 25.5774 9.5149 26.9511 10.8885C28.3247 12.2622 28.5245 14.3491 27.5829 15.947L32.3234 20.6875C33.9253 19.7459 36.0122 19.9497 37.3859 21.3233C39.0163 22.9538 39.0163 25.5951 37.3859 27.2255C35.7554 28.8559 33.1141 28.8559 31.4837 27.2255C30.1101 25.8519 29.9062 23.7649 30.8478 22.163L26.1073 17.4225C25.769 17.6222 25.4144 17.769 25.0435 17.8627V30.682C26.841 31.1467 28.1739 32.7649 28.1739 34.7092C28.1739 37.0163 26.3071 38.8831 24 38.8831C21.6929 38.8831 19.8261 37.0163 19.8261 34.7092C19.8261 32.7649 21.159 31.1467 22.9565 30.682V17.8627C22.2595 17.6834 21.5951 17.3369 21.0489 16.7907C19.6753 15.4171 19.4755 13.3301 20.4171 11.7323L15.591 6.90621L1.25951 21.2377C-0.419837 22.913 -0.419837 25.6358 1.25951 27.3111L20.9633 47.0149C21.7989 47.8546 22.8995 48.2744 24 48.2744C25.1005 48.2744 26.2011 47.8546 27.0367 47.0149L46.7405 27.3111C48.4198 25.6358 48.4198 22.913 46.7405 21.2377Z" fill="white"/>
</svg>
